<svg width="290" height="300" viewBox="0 0 290 300" xmlns="http://www.w3.org/2000/svg" id="bg-email">
	<path d="M338.951 0.861176H91.6809C83.3736 0.870858 76.6418 7.60266 76.6322 15.9099V84.1131L65.3249 67.1522C60.1491 59.345 49.7402 57.0027 41.7193 61.8409L18.4561 75.8274C10.8377 80.2977 5.24903 87.5468 2.86447 96.0518C-5.62186 126.952 0.67495 180.189 78.8162 258.342C140.958 320.419 187.29 337.138 219.223 337.138C226.616 337.172 233.98 336.211 241.117 334.282C249.619 331.897 256.868 326.316 261.347 318.708L275.316 295.421C280.135 287.406 277.794 277.019 270.005 271.844L214.301 234.712C206.66 229.658 196.417 231.32 190.766 238.53L174.548 259.38C172.853 261.611 169.779 262.261 167.325 260.908L164.238 259.209C154.082 253.673 141.441 246.78 115.912 221.251C113.149 218.489 110.647 215.904 108.299 213.431H338.951C347.238 213.437 353.967 206.739 354 198.453V15.9099C353.99 7.60266 347.258 0.870858 338.951 0.861176ZM158.591 269.573L161.589 271.219C169.125 275.433 178.611 273.478 183.867 266.628L200.084 245.778C201.928 243.43 205.264 242.888 207.756 244.533L263.459 281.665C265.99 283.351 266.751 286.728 265.188 289.336L251.22 312.624C248.303 317.626 243.564 321.305 237.995 322.892C210.099 330.564 161.276 324.073 87.1773 249.968C13.0784 175.864 6.61144 127.046 14.2651 99.1736C15.8509 93.6057 19.528 88.867 24.5274 85.9486L47.8149 71.9739C50.4242 70.4151 53.7984 71.1751 55.4865 73.7028L92.6359 129.407C94.2833 131.898 93.7418 135.237 91.3904 137.078L70.5345 153.301C63.6859 158.555 61.7301 168.039 65.9432 175.573L67.5953 178.571C73.4966 189.395 80.8321 202.862 107.572 229.595C134.312 256.33 147.774 263.671 158.591 269.573ZM342.198 198.454C342.178 200.229 340.727 201.653 338.952 201.64H97.6526C89.9879 192.875 83.3785 183.242 77.9593 172.936L76.2594 169.838C74.9039 167.389 75.5526 164.317 77.7823 162.626L98.6381 146.403C105.851 140.753 107.513 130.509 102.456 122.868L88.4346 101.823V15.9099C88.4249 15.0461 88.7638 14.2148 89.3745 13.6042C89.9851 12.9935 90.8164 12.6546 91.6802 12.6643H338.951C339.815 12.6546 340.646 12.9935 341.257 13.6042C341.868 14.2148 342.207 15.0461 342.197 15.9099V198.454H342.198Z" fill="#F7F7F7"/>
	<path d="M318.627 28.1854L219.995 102.986C217.205 105.014 213.426 105.014 210.636 102.986L112.041 28.1854C109.443 26.2151 105.74 26.724 103.77 29.3216C101.8 31.9192 102.309 35.6226 104.907 37.5922L203.514 112.387C210.529 117.57 220.104 117.57 227.119 112.387L325.756 37.5922C327.004 36.6461 327.825 35.2422 328.038 33.6903C328.25 32.1384 327.837 30.5658 326.889 29.3188C324.919 26.7261 321.222 26.2192 318.627 28.1854Z" fill="#F7F7F7"/>
	<path d="M164.953 112.883L104.499 177.622C102.276 180.006 102.406 183.741 104.79 185.964C107.174 188.186 110.909 188.056 113.132 185.672L173.587 120.904C175.584 118.494 175.353 114.944 173.06 112.814C170.767 110.683 167.209 110.713 164.953 112.883Z" fill="#F7F7F7"/>
	<path d="M266.069 112.883C263.846 110.499 260.111 110.367 257.727 112.591C255.343 114.814 255.212 118.548 257.435 120.933L317.872 185.672C320.095 188.056 323.829 188.187 326.214 185.964C328.598 183.741 328.729 180.006 326.506 177.622L266.069 112.883Z" fill="#F7F7F7"/>
</svg>
