<svg width="23" height="6" viewBox="0 0 23 6" fill="none" xmlns="http://www.w3.org/2000/svg">
	<symbol id="dot">
		<path fill-rule="evenodd" clip-rule="evenodd" d="M2.5 0.190399C1.11925 0.190399 0 1.31451 0 2.70012C0 4.08674 1.11925 5.20984 2.5 5.20984C3.88014 5.20984 5 4.08664 5 2.70012C4.9999 1.31451 3.88014 0.190399 2.5 0.190399Z" fill="#212121"/>
		<path fill-rule="evenodd" clip-rule="evenodd" d="M11.5 0.190399C10.1193 0.190399 9 1.31451 9 2.70012C9 4.08674 10.1193 5.20984 11.5 5.20984C12.8801 5.20984 14 4.08664 14 2.70012C13.9999 1.31451 12.8801 0.190399 11.5 0.190399Z" fill="#212121"/>
		<path fill-rule="evenodd" clip-rule="evenodd" d="M20.5 0.190399C19.1193 0.190399 18 1.31451 18 2.70012C18 4.08674 19.1193 5.20984 20.5 5.20984C21.8801 5.20984 23 4.08664 23 2.70012C22.9999 1.31451 21.8801 0.190399 20.5 0.190399Z" fill="#212121"/>
	</symbol>
</svg>
