<svg width="22" height="30" viewBox="0 0 22 30" fill="none" xmlns="http://www.w3.org/2000/svg" id="location">
	<path d="M20.8446 7.46669C20.7378 7.06647 20.521 6.64003 20.3605 6.26666C18.4409 1.65333 14.2466 0 10.8598 0C6.32607 0 1.33268 3.04008 0.666016 9.30639V10.5866C0.666016 10.6401 0.684429 11.12 0.710585 11.3601C1.0843 14.3465 3.44077 17.5203 5.20067 20.5067C7.09408 23.7063 9.05877 26.8538 11.0052 29.9999C12.2055 27.9468 13.4014 25.8667 14.5743 23.8667C14.894 23.2798 15.265 22.6932 15.585 22.1329C15.7983 21.7599 16.2058 21.3869 16.392 21.0398C18.2853 17.5734 21.3328 14.0801 21.3328 10.64V9.22674C21.3329 8.85379 20.8706 7.54711 20.8446 7.46669ZM10.9428 13.8935C9.61013 13.8935 8.1514 13.2271 7.43138 11.3868C7.32411 11.0938 7.33276 10.5068 7.33276 10.453V9.62633C7.33276 7.28026 9.32479 6.21338 11.0578 6.21338C13.1912 6.21338 14.8413 7.92027 14.8413 10.0538C14.8413 12.1872 13.0763 13.8935 10.9428 13.8935Z" fill="#F2F2F2"/>
</svg>
