<svg width="25" height="20" viewBox="0 0 25 20" fill="none" xmlns="http://www.w3.org/2000/svg" id="email">
	<path d="M22.7676 19.927C23.3296 19.927 23.8165 19.7407 24.2305 19.3729L17.1476 12.2622C16.9777 12.3843 16.8129 12.5031 16.6573 12.6161C16.1273 13.0081 15.6971 13.3141 15.3668 13.5333C15.0365 13.753 14.597 13.9769 14.0484 14.2056C13.4995 14.4345 12.9881 14.5486 12.5137 14.5486H12.4998H12.4859C12.0115 14.5486 11.5001 14.4346 10.9512 14.2056C10.4023 13.9769 9.96285 13.753 9.63288 13.5333C9.30258 13.3141 8.87261 13.0082 8.34229 12.6161C8.19451 12.5073 8.03061 12.388 7.85341 12.2603L0.769165 19.3729C1.18307 19.7407 1.67031 19.927 2.23223 19.927H22.7676Z" fill="#F2F2F2"/>
	<path d="M1.40918 7.78474C0.879178 7.43002 0.409179 7.02376 0 6.56616V17.3843L6.2428 11.1173C4.99388 10.242 3.38472 9.13244 1.40918 7.78474Z" fill="#F2F2F2"/>
	<path d="M23.6049 7.78473C21.7047 9.07584 20.0897 10.1873 18.7596 11.1198L25 17.3845V6.56616C24.5999 7.01456 24.1349 7.42054 23.6049 7.78473Z" fill="#F2F2F2"/>
	<path d="M22.768 0.207764H2.23261C1.51619 0.207764 0.965399 0.450625 0.579547 0.935846C0.193377 1.42129 0.000610352 2.0284 0.000610352 2.75648C0.000610352 3.34459 0.256423 3.98182 0.76782 4.66834C1.27922 5.3546 1.82339 5.89363 2.40005 6.28572C2.71619 6.50994 3.66954 7.17528 5.26011 8.28151C6.11873 8.87882 6.86542 9.39944 7.50709 9.84871C8.05402 10.2313 8.52571 10.5626 8.91514 10.8375C8.95985 10.869 9.03016 10.9195 9.12348 10.9865C9.22402 11.059 9.35124 11.151 9.5082 11.2647C9.81044 11.4842 10.0615 11.6616 10.2615 11.7971C10.4612 11.9326 10.7032 12.084 10.9871 12.2522C11.2707 12.4201 11.5382 12.5463 11.7893 12.6303C12.0404 12.7142 12.2729 12.7563 12.4868 12.7563H12.5007H12.5146C12.7284 12.7563 12.9609 12.7142 13.2121 12.6303C13.4632 12.5463 13.7305 12.4204 14.0143 12.2522C14.2979 12.084 14.5396 11.9323 14.7399 11.7971C14.9399 11.6616 15.191 11.4842 15.4933 11.2647C15.6499 11.151 15.7771 11.0589 15.8777 10.9867C15.971 10.9194 16.0413 10.8693 16.0863 10.8375C16.3897 10.6256 16.8624 10.2957 17.4981 9.85258C18.6547 9.04586 20.358 7.85848 22.6153 6.28572C23.2942 5.8097 23.8614 5.23526 24.3172 4.56322C24.7722 3.89119 25.0004 3.18625 25.0004 2.44865C25.0004 1.83238 24.7792 1.30506 24.3378 0.865858C23.8959 0.427204 23.3726 0.207764 22.768 0.207764Z" fill="#F2F2F2"/>
</svg>
