<svg width="42" height="42" viewBox="0 0 42 42" fill="none" xmlns="http://www.w3.org/2000/svg" id="viber">
	<rect opacity="0.5" width="42" height="42" rx="2" fill="#7C529E"/>
	<g clip-path="url(#clip0)">
		<path d="M21.8481 11.3442C22.0284 11.2 22.1366 11.2 22.7136 11.2C23.0021 11.2 23.4348 11.236 23.6873 11.2721C24.8773 11.4163 25.6346 11.5967 26.6804 12.1015C27.7262 12.6064 28.3754 13.0752 29.2769 13.9046C30.1063 14.698 30.5391 15.3111 31.044 16.2847C31.7291 17.619 32.0898 19.1697 32.1619 20.9007C32.198 21.4777 32.1619 21.6219 32.0177 21.8022C31.7653 22.1268 31.1883 22.0907 30.9719 21.694C30.8997 21.5859 30.8997 21.4777 30.8637 21.0089C30.8276 20.2876 30.7916 19.8188 30.6834 19.2418C30.2867 17.0421 29.2048 15.275 27.4739 14.0128C26.0314 12.967 24.7692 12.5704 22.8218 12.4261C22.1367 12.4261 22.0284 12.4261 21.8842 12.2819C21.5957 12.1015 21.5957 11.5966 21.8481 11.3442Z" fill="#F2F2F2"/>
		<path d="M25.4181 15.8519C24.733 15.4552 23.6872 15.1307 22.7495 15.0585C22.425 15.0225 22.2086 14.9504 22.1004 14.8061C21.884 14.6258 21.884 14.3012 22.0283 14.0849C22.2086 13.7964 22.4971 13.7603 23.3265 13.9046C25.4181 14.193 27.0409 15.1667 28.1227 16.7174C28.7358 17.5829 29.0964 18.6287 29.2046 19.7106C29.2407 20.1072 29.2407 20.8285 29.2046 20.9727C29.1685 21.0809 29.0243 21.2612 28.8801 21.2973C28.7358 21.3695 28.4473 21.3695 28.3031 21.2612C28.0506 21.117 27.9424 20.9367 27.9424 20.3597C27.9424 19.4942 27.726 18.5566 27.2933 17.8353C26.8606 17.0059 26.2115 16.3207 25.4181 15.8519Z" fill="#F2F2F2"/>
		<path d="M26.3196 20.6122C26.1032 20.7925 25.7426 20.7925 25.5262 20.6122C25.3459 20.504 25.3099 20.3598 25.2738 19.9991C25.2378 19.5303 25.1296 19.2058 25.0214 18.9173C24.7329 18.2681 24.192 17.9436 23.2904 17.8354C22.8577 17.7993 22.7495 17.7272 22.6053 17.583C22.3529 17.2945 22.461 16.8257 22.7856 16.6453C22.9298 16.5732 22.9659 16.5732 23.2544 16.6093C23.4347 16.6093 23.6872 16.6453 23.8314 16.6814C24.5166 16.8257 25.0214 17.0781 25.4903 17.4748C26.0672 18.0157 26.3918 18.6288 26.5 19.5664C26.572 20.1795 26.536 20.4319 26.3196 20.6122Z" fill="#F2F2F2"/>
		<path d="M32.1258 28.2935C32.1258 27.9689 32.0176 27.7165 31.8012 27.4641C31.5848 27.2117 30.1063 26.0216 29.3851 25.5528C28.8442 25.1922 28.0147 24.6873 27.6541 24.507C27.1492 24.2546 26.6444 24.2185 26.1756 24.3628C26.0674 24.3988 25.9952 24.4349 25.9231 24.4709C25.7067 24.5791 25.5265 24.7955 25.0937 25.3003C24.8052 25.661 24.5528 25.9855 24.5167 25.9855C24.5167 25.9855 24.4807 25.9855 24.4807 26.0216C24.4446 26.0577 24.3364 26.0937 24.2643 26.1298C23.7955 26.3461 23.1824 26.2019 22.1727 25.7331C21.3793 25.3364 20.6941 24.8676 19.9008 24.1464C19.2156 23.5333 18.5304 22.776 18.1698 22.1629C17.6649 21.3696 17.3043 20.3598 17.3043 19.7828C17.3043 19.5304 17.4125 19.2059 17.5207 19.0255L17.5568 18.9895C17.5568 18.9895 17.5568 18.9895 17.5928 18.9534C17.6289 18.9173 17.665 18.8813 17.701 18.8813C17.8453 18.7731 18.0256 18.5928 18.2059 18.4485C19.0353 17.7994 19.2156 17.583 19.3238 17.2224C19.432 16.8618 19.3238 16.393 18.9632 15.7438C18.314 14.5538 16.5109 12.2819 15.8618 11.8492C15.7536 11.777 15.5733 11.7049 15.4651 11.6328C15.1766 11.5606 14.78 11.5246 14.5636 11.5606C14.239 11.6328 13.8423 11.8852 12.9408 12.5343C12.3999 12.931 11.6786 13.6162 11.4983 13.9047C11.1016 14.5898 11.1377 15.1308 11.6065 16.4651C12.0392 17.6551 12.6162 18.8452 13.2653 19.9992L13.3014 20.0352C13.4457 20.2516 13.5899 20.504 13.7342 20.7204C13.7342 20.7565 13.7702 20.7565 13.7702 20.7925C13.9145 21.0089 14.0587 21.2613 14.203 21.4777C14.2751 21.5498 14.3111 21.658 14.3833 21.7301C14.4915 21.9104 14.5997 22.0547 14.7439 22.235C14.9242 22.4874 15.1046 22.7399 15.3209 22.9923C17.3764 25.6609 19.7565 27.8247 22.5694 29.5917C22.6055 29.6278 22.6415 29.6278 22.6776 29.6638C23.1103 29.9163 23.543 30.1687 23.9758 30.4211C24.0479 30.4572 24.084 30.4933 24.1561 30.5293C24.5888 30.7817 25.0577 30.9981 25.5265 31.2145C25.5625 31.2505 25.6346 31.2505 25.6707 31.2866C26.1395 31.503 26.6444 31.7194 27.1493 31.9358C27.7623 32.1882 27.9787 32.2242 28.4475 32.1882C28.6639 32.1882 28.8802 32.1521 29.0605 32.08C29.349 32.0079 29.6015 31.8636 29.926 31.6473C29.9982 31.6112 30.0342 31.5751 30.1063 31.5391C30.1785 31.503 30.2506 31.4309 30.3227 31.3588C30.7194 31.0342 31.1521 30.5294 31.5128 30.0605C31.7652 29.736 31.9455 29.4114 32.0537 29.159C32.0897 28.7983 32.1258 28.5459 32.1258 28.2935Z" fill="#F2F2F2"/>
	</g>
	<defs>
		<clipPath id="clip0">
			<rect width="21" height="21" fill="white" transform="translate(11.2002 11.2)"/>
		</clipPath>
	</defs>
</svg>
