<svg width="42" height="42" viewBox="0 0 42 42" fill="none" xmlns="http://www.w3.org/2000/svg" id="twitter">
	<rect opacity="0.5" width="42" height="42" rx="2" fill="#55ADED"/>
	<path fill-rule="evenodd" clip-rule="evenodd" d="M31.6428 14.5908C30.8567 14.9275 30.017 15.155 29.1319 15.26C30.0351 14.735 30.7302 13.9034 31.0554 12.915C30.2107 13.4008 29.2764 13.755 28.2785 13.9433C27.4786 13.1159 26.3406 12.6 25.0854 12.6C22.6691 12.6 20.7138 14.4984 20.7138 16.8392C20.7138 17.1717 20.7499 17.4958 20.8265 17.8066C17.1912 17.6316 13.9664 15.9425 11.8123 13.3742C11.4373 14 11.2206 14.7308 11.2206 15.505C11.2206 16.975 11.9973 18.2742 13.1715 19.0358C12.4489 19.0183 11.7719 18.8258 11.1844 18.5059V18.5591C11.1844 20.615 12.6932 22.3258 14.6933 22.715C14.3276 22.8109 13.9396 22.8634 13.5422 22.8634C13.2618 22.8634 12.9865 22.8375 12.7199 22.785C13.2756 24.4692 14.8927 25.6942 16.8075 25.7292C15.3125 26.8667 13.4244 27.545 11.3745 27.545C11.0218 27.545 10.6743 27.5233 10.3311 27.4841C12.2596 28.7 14.5582 29.4 17.0236 29.4C25.076 29.4 29.4751 22.9383 29.4751 17.3334C29.4751 17.15 29.47 16.9659 29.4614 16.7867C30.3147 16.1875 31.0554 15.4441 31.6428 14.5908Z" fill="#F2F2F2"/>
</svg>
